<svg 
 xmlns="http://www.w3.org/2000/svg"
 xmlns:xlink="http://www.w3.org/1999/xlink"
 width="390px" height="101px">
<path fill-rule="evenodd"  fill="rgb(0, 92, 228)"
 d="M389.999,49.999 L290.378,100.750 L290.25,53.751 L257.22,53.999 L256.977,48.0 L289.980,47.751 L289.626,0.753 L389.999,49.999 ZM204.0,48.0 L237.0,48.0 L237.0,53.999 L204.0,53.999 L204.0,48.0 ZM152.0,48.0 L183.0,48.0 L183.0,53.999 L152.0,53.999 L152.0,48.0 ZM100.999,46.999 L137.0,46.999 L137.0,52.999 L100.999,52.999 L100.999,46.999 ZM49.999,46.999 L82.999,46.999 L82.999,52.999 L49.999,52.999 L49.999,46.999 ZM0.0,46.999 L32.0,46.999 L32.0,52.999 L0.0,52.999 L0.0,46.999 Z"/>
</svg>