<?xml version="1.0" encoding="UTF-8"?>
<svg width="24px" height="24px" viewBox="0 0 35 30" version="1.1" xmlns="http://www.w3.org/2000/svg" xmlns:xlink="http://www.w3.org/1999/xlink">
    <title>Shape</title>
    <g id="Wordpress" stroke="none" stroke-width="1" fill="none" fill-rule="evenodd">
        <g id="New-Dashboard" transform="translate(-708.000000, -442.000000)">
            <g id="Group-11" transform="translate(157.000000, 417.000000)">
                <g id="speedometer" transform="translate(453.000000, 0.000000)">
                    <g transform="translate(98.526175, 25.000000)">
                        <path d="M17.1497797,22.1 C14.3083112,22.1 12.0048458,19.8166522 12.0048458,17 C12.0048458,15.096 13.0509824,13.43 14.5773128,12.563 L31.2297489,3.009 L21.7459207,19.295 C20.8884317,20.961 19.156304,22.1 17.1497797,22.1 M17.1497797,0 C20.2538899,0 23.1522026,0.85 25.6732203,2.244 L22.0717665,4.301 C20.5797357,3.723 18.8647577,3.4 17.1497797,3.4 C9.57253029,3.4 3.42995595,9.4889274 3.42995595,17 C3.42995595,20.757 4.95628634,24.157 7.44300441,26.605 L7.46015419,26.605 C8.12899559,27.268 8.12899559,28.339 7.46015419,29.002 C6.79131278,29.665 5.69372687,29.665 5.02488546,29.019 L5.02488546,29.019 C1.92077533,25.942 0,21.692 0,17 C0,7.61115925 7.67821792,0 17.1497797,0 M34.2995595,17 C34.2995595,21.692 32.3787841,25.942 29.274674,29.019 L29.274674,29.019 C28.6058326,29.665 27.5253965,29.665 26.8565551,29.002 C26.1877137,28.339 26.1877137,27.268 26.8565551,26.605 L26.8565551,26.605 C29.3432731,24.14 30.8696035,20.757 30.8696035,17 C30.8696035,15.3 30.5437577,13.6 29.9435154,12.07 L32.0186388,8.5 C33.4420705,11.05 34.2995595,13.906 34.2995595,17 Z" id="Shape" fill="rgb(0, 92, 228)"></path>
                    </g>
                </g>
            </g>
        </g>
    </g>
</svg>
