<svg xmlns="http://www.w3.org/2000/svg" xmlns:xlink="http://www.w3.org/1999/xlink" viewBox="0 0 480 480">
<path fill-rule="evenodd"  fill="rgb(198, 209, 219)"
 d="M261.345,76.118 L261.345,0.257 C373.826,11.504 463.173,101.534 473.732,214.534 L398.162,214.534 C388.322,143.166 332.311,86.596 261.345,76.118 ZM75.347,237.15 C75.347,318.539 135.152,386.50 213.162,397.837 L213.162,473.724 C93.572,461.490 0.265,360.182 0.265,237.15 C0.265,113.804 93.640,12.466 213.293,0.293 L213.293,76.176 C135.219,87.907 75.347,155.446 75.347,237.15 ZM261.466,397.893 C331.353,387.519 386.710,332.440 397.703,262.563 L473.418,262.563 C461.547,374.80 372.868,462.557 261.466,473.756 L261.466,397.893 Z"/>
</svg>