<svg xmlns="http://www.w3.org/2000/svg" xmlns:xlink="http://www.w3.org/1999/xlink" viewBox="0 0 480 480">
<path fill-rule="evenodd"  fill="rgb(0, 92, 228)"
 d="M417.999,304.0 L417.999,417.999 L304.0,417.999 L304.0,379.999 L113.999,379.999 L113.999,417.999 L0.0,417.999 L0.0,304.0 L38.0,304.0 L38.0,113.999 L0.0,113.999 L0.0,0.0 L113.999,0.0 L113.999,38.0 L304.0,38.0 L304.0,0.0 L417.999,0.0 L417.999,113.999 L379.999,113.999 L379.999,304.0 L417.999,304.0 ZM38.0,379.999 L76.0,379.999 L76.0,341.999 L38.0,341.999 L38.0,379.999 ZM76.0,38.0 L38.0,38.0 L38.0,76.0 L76.0,76.0 L76.0,38.0 ZM304.0,76.0 L113.999,76.0 L113.999,113.999 L76.0,113.999 L76.0,304.0 L113.999,304.0 L113.999,341.999 L304.0,341.999 L304.0,304.0 L341.999,304.0 L341.999,113.999 L304.0,113.999 L304.0,76.0 ZM379.999,38.0 L341.999,38.0 L341.999,76.0 L379.999,76.0 L379.999,38.0 ZM341.999,341.999 L341.999,379.999 L379.999,379.999 L379.999,341.999 L341.999,341.999 ZM189.999,218.500 L246.999,265.999 L265.999,246.999 L304.0,285.0 L113.999,285.0 L189.999,218.500 ZM265.999,209.0 C245.13,209.0 228.0,191.986 228.0,171.0 C228.0,150.13 245.13,132.999 265.999,132.999 C286.986,132.999 304.0,150.13 304.0,171.0 C304.0,191.986 286.986,209.0 265.999,209.0 Z"/>
</svg>