<svg xmlns="http://www.w3.org/2000/svg" viewBox="0 0 85.29 83.03"><defs><style>.cls-1{fill:#3346c6;}.cls-1,.cls-2{fill-rule:evenodd;}.cls-2{fill:#f7bc00;}</style></defs><g id="Layer_2" data-name="Layer 2"><g id="Warstwa_1" data-name="Warstwa 1"><path class="cls-1" d="M41.53,24.94c5.86,0,10.11,6.81,5.42,12.94-6.16,4.6-12.85.36-12.85-5.48a7.45,7.45,0,0,1,7.43-7.46ZM17.89,59.78a11.32,11.32,0,0,1,3,.4l3.21-5.53H15.45a15.44,15.44,0,0,1-.4-30.87,25.12,25.12,0,0,1,48.39-8,22,22,0,0,1,2.3-.17,19.55,19.55,0,1,1,0,39.09H60.21L51.14,39c2.51-3.69,2.93-8.82-.26-14.07a4.08,4.08,0,0,0-1-1.12c-9.49-7.08-19.94-.47-19.94,8.64a11.76,11.76,0,0,0,2.69,7.46L24.07,54.65h4.87l7-12.07a10.71,10.71,0,0,0,8.48,1.3,10.9,10.9,0,0,0,3.66-1.81L55.3,54.65h4.88L63.3,60l-4.06,1.84-4.05-7.23H28.94l-4.14,7.4c4.76,3.53,6.7,10.58,2.06,17.25a4.19,4.19,0,0,1-1,1C16.48,87,6.26,80.41,6.26,71.4A11.64,11.64,0,0,1,17.89,59.78Zm0,4.2c5.84,0,10.14,6.7,5.47,12.86h0c-6.17,4.67-12.9.42-12.9-5.44A7.41,7.41,0,0,1,17.89,64Z"/><path class="cls-2" d="M66.05,83C75,83,81.62,72.79,75,63.4a4.12,4.12,0,0,0-1-.95c-9.38-6.68-19.56-.05-19.56,8.9A11.64,11.64,0,0,0,66.05,83Z"/></g></g></svg>