<svg xmlns="http://www.w3.org/2000/svg" xmlns:xlink="http://www.w3.org/1999/xlink" viewBox="0 0 480 400">
<path fill-rule="evenodd" fill="rgb(255, 255, 255)"
 d="M388.781,304.527 L40.883,304.527 C18.791,304.527 0.883,286.619 0.883,264.527 L0.883,40.494 C0.883,18.403 18.791,0.494 40.883,0.494 L388.781,0.494 C410.872,0.494 428.781,18.403 428.781,40.494 L428.781,264.527 C428.781,286.619 410.872,304.527 388.781,304.527 ZM275.357,97.616 L47.332,97.616 L47.332,170.809 L275.357,170.809 L275.357,97.616 ZM275.357,191.922 L47.332,191.922 L47.332,262.300 L275.357,262.300 L275.357,191.922 ZM383.739,97.616 L297.878,97.616 L297.878,262.300 L383.739,262.300 L383.739,97.616 Z"/>
</svg>
