<svg xmlns="http://www.w3.org/2000/svg" xmlns:xlink="http://www.w3.org/1999/xlink" viewBox="0 0 480 480">
<path fill-rule="evenodd"  fill="rgb(0, 92, 228)"
 d="M387.479,344.911 L129.215,344.911 C105.442,344.911 86.171,325.640 86.171,301.867 L86.171,43.603 C86.171,19.830 105.442,0.559 129.215,0.559 L387.479,0.559 C411.252,0.559 430.523,19.830 430.523,43.603 L430.523,301.867 C430.523,325.640 411.252,344.911 387.479,344.911 ZM312.152,194.257 L236.825,269.584 L193.781,215.779 L129.215,301.867 L387.479,301.867 L312.152,194.257 ZM344.435,431.0 L43.126,431.0 C19.354,431.0 0.82,411.728 0.82,387.955 L0.82,86.647 L43.126,86.647 L43.126,387.955 L344.435,387.955 L344.435,431.0 Z"/>
</svg>