<?xml version="1.0" encoding="UTF-8"?>
<svg width="24px" height="24px" viewBox="0 0 34 34" version="1.1" xmlns="http://www.w3.org/2000/svg" xmlns:xlink="http://www.w3.org/1999/xlink">
    <title>crop  copy</title>
    <g id="Wordpress" stroke="none" stroke-width="1" fill="none" fill-rule="evenodd">
        <g id="New-Dashboard" transform="translate(-480.000000, -441.000000)" fill="rgb(0, 92, 228)">
            <g id="Group-11" transform="translate(157.000000, 417.000000)">
                <g id="Group-4-Copy-2" transform="translate(226.000000, 0.000000)">
                    <g id="crop--copy" transform="translate(97.854626, 24.000000)">
                        <path d="M8.83488941,-1.0493458e-13 L8.83488941,3.09043847 L23.5586904,3.09043847 L23.5586904,-1.0493458e-13 L32.3938881,-1.0493458e-13 L32.3938881,9.27260962 L29.4486038,9.27260962 L29.4486038,24.7273904 L32.3938881,24.7273904 L32.3938881,34 L23.5586904,34 L23.5586904,30.909238 L8.83488941,30.909238 L8.83488941,34 L-1.13416916e-13,34 L-1.13416916e-13,24.7273904 L2.94563104,24.7273904 L2.94563104,9.27260962 L-1.13416916e-13,9.27260962 L-1.13416916e-13,-1.0493458e-13 L8.83488941,-1.0493458e-13 Z M5.88991343,27.818476 L2.94563104,27.818476 L2.94563104,30.909238 L5.88991343,30.909238 L5.88991343,27.818476 Z M29.4486038,27.818476 L26.5043214,27.818476 L26.5043214,30.909238 L29.4486038,30.909238 L29.4486038,27.818476 Z M23.5586904,6.1818476 L8.83488941,6.1818476 L8.83488941,9.27260962 L5.88991343,9.27260962 L5.88991343,24.7273904 L8.83488941,24.7273904 L8.83488941,27.818476 L23.5586904,27.818476 L23.5586904,24.7273904 L26.5043214,24.7273904 L26.5043214,9.27260962 L23.5586904,9.27260962 L23.5586904,6.1818476 Z M20.6140612,9.27260962 C22.2338982,9.27260962 23.5586904,10.6638974 23.5586904,12.3636952 L23.5586904,21.6366284 C23.5586904,23.3364666 22.2338982,24.7273904 20.6140612,24.7273904 L11.7798269,24.7273904 C10.1600284,24.7273904 8.83488941,23.3364666 8.83488941,21.6366284 L8.83488941,12.3636952 C8.83488941,10.6638974 10.1600284,9.27260962 11.7798269,9.27260962 L20.6140612,9.27260962 Z M18.0376504,16.9998382 L15.4608927,20.492739 L13.6205332,18.1594604 L11.0434287,21.6366284 L21.3504593,21.6366284 L18.0376504,16.9998382 Z M5.88991343,3.09043847 L2.94563104,3.09043847 L2.94563104,6.1818476 L5.88991343,6.1818476 L5.88991343,3.09043847 Z M29.4486038,3.09043847 L26.5043214,3.09043847 L26.5043214,6.1818476 L29.4486038,6.1818476 L29.4486038,3.09043847 Z" id="Combined-shape-18217"></path>
                    </g>
                </g>
            </g>
        </g>
    </g>
</svg>
