<svg xmlns="http://www.w3.org/2000/svg" xmlns:xlink="http://www.w3.org/1999/xlink" viewBox="0 0 480 400">
<path fill-rule="evenodd"  fill="rgb(52, 72, 197)"
 d="M429.999,355.0 L325.0,355.0 L325.0,401.0 L152.0,401.0 L152.0,355.0 L50.0,355.0 C22.385,355.0 0.0,332.614 0.0,305.0 L0.0,49.999 C0.0,22.385 22.385,0.0 50.0,0.0 L429.999,0.0 C457.614,0.0 479.999,22.385 479.999,49.999 L479.999,305.0 C479.999,332.614 457.614,355.0 429.999,355.0 ZM435.999,51.999 L39.999,51.999 L39.999,313.999 L435.999,313.999 L435.999,51.999 ZM177.0,260.0 L177.0,98.999 L318.999,179.499 L177.0,260.0 Z"/>
</svg>